<svg width="1920" height="1080" viewBox="0 0 1920 1080" fill="none" xmlns="http://www.w3.org/2000/svg">
    <path d="M959.57 405.87C975.21 441.98 985 479.21 987.47 519.09C970.24 518.88 953.23 519.46 936.95 510.67C949.98 527.49 1002.82 532.89 1032.92 513.53C1036.93 521.72 1041.1 529.74 1044.84 537.96C1054.56 559.3 1060.85 581.58 1062.94 605.03C1063.33 609.38 1062.07 611.05 1057.99 612.24C1031.69 619.92 1004.86 620.91 977.84 618.53C955.9 616.59 934.47 612.11 914.18 603.15C912.53 602.42 910.92 601.62 908.57 600.51C937 563.36 931.17 525.11 913.34 485.69C916.26 487.19 919.06 488.63 922.74 490.53C922.74 487.79 922.88 485.59 922.72 483.42C921.52 467.49 920.38 451.55 918.96 435.64C918.16 426.63 922.21 420.97 930.31 417.95C936.53 415.63 942.89 413.71 949.14 411.49C950.65 410.96 952.66 410.31 953.29 409.11C955.84 404.24 959.55 401.05 964.91 400.03C962.45 388.99 955.74 384.98 945.83 388.89C939.83 391.26 934.18 394.49 928.41 397.42C921.64 400.85 914.42 401.68 907.04 400.84C901.69 400.23 897.28 397.85 895.19 392.42C898.49 391.01 901.65 389.66 904.81 388.32C904.75 387.85 904.7 387.38 904.64 386.92C901.99 386.92 899.32 386.76 896.68 386.95C892.05 387.28 888.16 385.93 885.03 382.48C879.08 375.91 872.3 373.61 863.8 378.95C869.03 369.67 882.4 363.87 892.72 366.6C900.72 368.72 908.42 371.98 916.41 374.12C919.42 374.93 923.25 374.87 926.08 373.71C932.3 371.15 938.33 371.52 944.99 372.37C942.86 370.92 940.73 369.47 938.65 368.05C943.14 364.25 953.22 365.79 957.96 368.67C969.26 375.53 972.32 386.27 971.86 398.56C972.25 398.74 972.53 399.01 972.81 399C980.65 398.8 981.08 398.69 982.92 406.25C989.8 434.62 996.4 463.06 1003.05 491.49C1004.98 499.73 1006.74 508.01 1008.71 516.89C1003.19 517.69 997.86 518.46 992.29 519.27C990.14 507.55 988.28 496.43 986.05 485.39C980.78 459.28 973.35 433.79 963.51 409.02C962.74 407.05 962.34 403.94 959.57 405.87ZM1022.36 567.21C1022.5 554.48 1014.59 546.55 1001.59 546.38C985.98 546.18 976.17 553.99 976.07 566.68C975.96 580.64 986.5 591.69 1000.2 591.96C1012.14 592.2 1022.21 580.96 1022.36 567.21ZM952.54 472.73C959.29 470.96 965.83 469.25 972.28 467.56C970.25 456.75 970.25 456.74 961.27 459.95C959.56 460.56 957.85 461.19 956.14 461.82C949.79 464.18 949.42 465.14 952.54 472.73ZM973.38 580.82C972.21 576.6 971.18 572.9 969.94 568.47C965.09 572.61 960.76 576.31 955.48 580.82C962.26 580.82 967.63 580.82 973.38 580.82ZM926.09 454.66C926.5 454.63 926.91 454.59 927.31 454.56C927.9 444.84 928.49 435.11 929.08 425.38C926.67 426.27 922.67 426.08 923.13 430.62C923.93 438.66 925.08 446.65 926.09 454.66ZM979.03 547.37C974.06 545.9 969.4 544.52 963.47 542.77C966.81 548.1 969.47 552.34 972.26 556.8C974.64 553.49 976.62 550.73 979.03 547.37ZM1023.68 602.2C1024.02 601.93 1024.35 601.65 1024.69 601.38C1023.29 596.95 1021.9 592.51 1020.46 587.94C1016.91 590.41 1014.07 592.38 1010.72 594.71C1015.22 597.31 1019.45 599.75 1023.68 602.2ZM997.31 528.72C995.13 532.97 993.15 536.83 991.17 540.69C995.6 540.69 999.65 540.69 1003.99 540.69C1001.7 536.58 999.63 532.86 997.31 528.72ZM978.82 592.11C979.63 596.21 980.38 600.07 981.28 604.62C985.33 601.74 988.58 599.43 991.89 597.07C987.39 595.37 983.47 593.88 978.82 592.11ZM1032.75 545.49C1028.11 546.24 1024.35 546.84 1020.48 547.46C1022.65 551.06 1024.71 554.49 1026.88 558.09C1028.75 554.08 1030.59 550.14 1032.75 545.49ZM1025.93 579.24C1030.06 577.91 1033.58 576.77 1038.17 575.29C1033.88 572.61 1030.81 570.7 1027.49 568.64C1026.92 572.5 1026.48 575.53 1025.93 579.24Z" fill="black"/>
    <path d="M897.11 699.59C905.41 687.2 906.65 672.65 910.78 659.06C912.33 653.96 914.42 652.31 920.14 651.65C935.4 649.9 950.47 646.55 965.62 643.84C965.52 643.2 965.42 642.56 965.32 641.92C961.92 642.4 958.51 642.78 955.14 643.38C951.54 644.02 947.98 644.88 944.4 645.61C932.83 647.96 921.26 650.97 909.35 648.98C904.07 648.1 898.98 646.03 892.5 644.11C898.7 634.96 904.47 627.25 909.32 619C912.41 613.75 915.82 613.17 921.38 614.26C957 621.22 992.95 623.81 1029.19 621.21C1038.13 620.57 1047.05 619.45 1057.04 618.45C1059.01 626.41 1061.09 634.77 1063.43 644.21C1049.86 639.48 1037.83 639.32 1026 644.86C1032.13 644.02 1038.27 643.17 1045.05 642.24C1044.78 656.63 1041.97 669.08 1033.2 679.43C1029.55 683.74 1025.77 687.54 1028.74 694.24C1012.91 694.79 999.68 690.37 988.58 680.01C987.87 679.35 987.87 677.68 987.92 676.5C988.12 671.68 988.72 666.85 988.59 662.04C988.55 660.72 986.68 658.6 985.33 658.31C979.95 657.14 975.13 658.98 970.96 662.41C963.37 668.65 955.79 674.91 948.32 681.28C933.69 693.76 916.88 700.09 897.11 699.59Z" fill="black"/>
    <path d="M872.16 523.6C869.58 525.74 866.92 527.94 864.04 530.32C856.36 521.65 850.65 512.2 846.33 501.87C845.97 501 845.68 499.5 846.13 498.99C849.94 494.69 846.57 491.19 844.88 487.7C836.03 469.52 832.6 450.54 836.02 430.49C837.07 424.32 839.11 418.65 845.29 414.52C844.95 418.15 844.67 421.15 844.38 424.16C847.47 419.6 845.07 411.56 854.04 410.34C853.23 415.03 852.49 419.3 851.75 423.56C854.76 419.1 853.28 412.67 860.4 408.65C861.03 415.3 861.56 420.91 862.14 427.01C866.83 425.98 867.24 428.61 867.18 432.64C867.04 442.57 868.7 452.17 873.94 460.91C874.63 462.06 874.76 464.39 874.04 465.38C870.39 470.44 866.48 475.32 862.44 480.08C860.75 482.08 858.51 483.62 856.76 485.64C866.21 482.3 872.9 475.84 876.75 467.93C884.27 474.53 892.12 480.87 899.21 487.97C901.27 490.03 901.48 494.22 901.92 497.52C902.24 499.9 901.54 502.42 901.3 504.88C901.71 504.94 902.11 505.01 902.52 505.07C903.03 501.8 903.87 498.55 903.96 495.27C904.06 491.71 903.47 488.14 903.77 484.49C922.54 513.32 927.87 544.27 917.87 577.66C917.44 574.39 917.22 571.07 916.53 567.85C914.48 558.19 908.56 551.16 900.74 545.59C895.32 541.73 889.59 538.29 884.3 534.28C880.08 531.07 876.31 527.28 872.16 523.6Z" fill="black"/>
    <path d="M1058.8 415.53C1057.26 411.75 1056.16 409.06 1055.05 406.33C1059.89 405.79 1059.89 405.79 1065.64 413.61C1064.68 410.97 1064.18 409.57 1063.45 407.54C1072.43 412.76 1076.54 420.62 1078.98 429.37C1083.9 446.95 1083.46 464.57 1078.28 482.05C1077.45 484.84 1077.16 487.02 1079.69 489.14C1080.47 489.8 1080.77 491.84 1080.38 492.94C1078.46 498.41 1076.25 503.77 1074.14 509.15C1072.75 508.73 1071.86 508.47 1070.86 508.17C1065.93 520.6 1062.82 533.71 1053.71 544.13C1048.67 532.52 1043.8 521.31 1038.94 510.09C1039.23 509.88 1039.53 509.66 1039.82 509.45C1043.04 513.25 1046.27 517.05 1049.49 520.84C1049.76 520.71 1050.02 520.59 1050.29 520.46C1049.29 518 1048.57 515.39 1047.25 513.11C1043.28 506.2 1038.95 499.49 1035.06 492.54C1034.1 490.82 1033.52 488.25 1034.06 486.46C1036.02 479.98 1038.53 473.66 1041.05 466.67C1047.15 469.09 1053.37 471.56 1059.59 474.02C1059.75 473.72 1059.91 473.41 1060.07 473.11C1054.89 470.13 1049.7 467.15 1044.45 464.12C1047.31 454 1049.6 443.8 1047.13 433.21C1046.91 432.25 1046.4 431.32 1046.33 430.36C1046.2 428.6 1046.31 426.83 1046.32 425.07C1048.68 425.25 1051.46 424.72 1053.3 425.8C1055.16 426.89 1056.09 429.57 1058.19 431.23C1057.05 429.23 1056.29 426.82 1054.69 425.3C1049.69 420.57 1047.61 413.47 1050.07 404.71C1053.13 408.48 1055.59 411.55 1058.8 415.53Z" fill="black"/>
    <path d="M1010.36 517.23C1002.28 479.16 994.47 442.4 986.39 404.35C992.17 405.13 996.63 405.38 1000.86 406.48C1002.55 406.92 1004.6 409 1005.06 410.72C1013.24 440.99 1021.11 471.33 1029.3 501.6C1030.22 505.01 1029.56 507.1 1026.8 508.62C1021.66 511.46 1016.39 514.09 1010.36 517.23ZM1012.11 463.81C1011.68 452.81 1009.6 451.38 999.29 454.79C1000.14 458.09 1000.98 461.39 1001.83 464.7C1005.5 464.39 1008.61 464.12 1012.11 463.81Z" fill="black"/>
    <path d="M1022.36 567.21C1022.2 580.96 1012.14 592.2 1000.19 591.96C986.49 591.69 975.95 580.65 976.06 566.68C976.16 553.99 985.98 546.18 1001.58 546.38C1014.6 546.54 1022.5 554.47 1022.36 567.21Z" fill="white"/>
    <path d="M952.54 472.73C949.42 465.14 949.79 464.18 956.15 461.82C957.86 461.19 959.56 460.56 961.28 459.95C970.26 456.75 970.26 456.75 972.29 467.56C965.83 469.25 959.28 470.96 952.54 472.73Z" fill="white"/>
    <path d="M973.38 580.82C967.63 580.82 962.25 580.82 955.49 580.82C960.77 576.31 965.1 572.61 969.95 568.47C971.18 572.9 972.21 576.6 973.38 580.82Z" fill="white"/>
    <path d="M926.09 454.66C925.08 446.65 923.93 438.66 923.13 430.63C922.68 426.09 926.67 426.28 929.08 425.39C928.49 435.12 927.9 444.84 927.31 454.57C926.9 454.59 926.49 454.62 926.09 454.66Z" fill="white"/>
    <path d="M979.03 547.37C976.62 550.73 974.64 553.49 972.26 556.8C969.47 552.34 966.81 548.1 963.47 542.77C969.4 544.52 974.06 545.9 979.03 547.37Z" fill="white"/>
    <path d="M1023.68 602.2C1019.45 599.76 1015.22 597.31 1010.72 594.71C1014.07 592.38 1016.91 590.41 1020.46 587.94C1021.9 592.51 1023.3 596.94 1024.69 601.38C1024.35 601.65 1024.02 601.92 1023.68 602.2Z" fill="white"/>
    <path d="M997.31 528.72C999.63 532.87 1001.7 536.58 1003.99 540.69C999.64 540.69 995.6 540.69 991.17 540.69C993.15 536.83 995.13 532.97 997.31 528.72Z" fill="white"/>
    <path d="M978.82 592.11C983.47 593.88 987.39 595.36 991.89 597.07C988.58 599.43 985.33 601.74 981.28 604.62C980.38 600.07 979.62 596.22 978.82 592.11Z" fill="white"/>
    <path d="M1032.75 545.49C1030.58 550.14 1028.74 554.08 1026.87 558.09C1024.7 554.49 1022.64 551.07 1020.47 547.46C1024.35 546.84 1028.11 546.24 1032.75 545.49Z" fill="white"/>
    <path d="M1025.93 579.24C1026.47 575.54 1026.92 572.51 1027.49 568.64C1030.81 570.71 1033.87 572.62 1038.17 575.29C1033.59 576.77 1030.06 577.9 1025.93 579.24Z" fill="white"/>
    <path d="M1012.11 463.81C1008.6 464.11 1005.49 464.38 1001.83 464.7C1000.98 461.39 1000.14 458.09 999.29 454.79C1009.6 451.38 1011.68 452.82 1012.11 463.81Z" fill="white"/>
</svg>